<svg width="133" height="65" viewBox="0 0 133 65" fill="none" xmlns="http://www.w3.org/2000/svg">
<path d="M25.7296 17.2817C25.7296 16.18 26.8313 15.7078 26.0443 14.6061C26.2017 14.6061 26.3591 14.6061 26.5165 14.6061C26.9887 12.8748 27.3035 10.9861 27.6183 9.25478C27.3035 8.46783 26.5165 7.99565 26.9887 6.89391C25.1 4.21826 22.7391 2.01478 19.5913 0.44087C19.5913 1.22783 19.2765 0.913043 18.9617 1.07044C18.3322 3.4313 18.0174 5.94956 18.0174 8.15304C16.2861 16.0226 15.1843 23.7348 12.3513 30.9748C12.3513 30.8174 11.8791 30.8174 11.7217 30.8174C11.7217 31.1322 11.8791 31.1322 11.8791 31.447C10.7774 30.8174 11.0922 32.5487 9.99043 32.3913C10.1478 32.2339 10.1478 32.0765 9.83304 31.9191C9.51826 33.0209 8.57391 32.5487 7.62957 33.0209C7.47217 33.493 8.25913 33.493 7.78696 33.6504C7.47217 33.3357 7.31478 33.8078 6.84261 33.8078C7 33.6504 7.15739 33.1783 6.68522 33.3357C6.37043 33.6504 6.21304 34.1226 5.89826 34.4374C5.58348 34.4374 5.58348 33.9652 5.1113 34.1226C4.79652 34.9096 3.69478 35.067 2.90783 35.3817C2.90783 35.5391 2.90783 35.6965 2.75043 35.6965C2.90783 35.8539 2.90783 36.0113 2.75043 36.0113C2.12087 35.6965 1.4913 36.0113 1.01913 36.3261C1.01913 37.113 1.17652 36.9557 0.861739 37.4278C1.80609 38.3722 2.59304 40.1035 3.85217 41.2052C3.69478 41.3626 3.69478 41.52 3.69478 41.6774C5.1113 43.0939 7.15739 43.7235 9.36087 44.353C8.25913 48.6026 7.62957 53.3243 7 57.5739C7.47217 58.0461 7.94435 58.2035 8.41652 58.2035C8.25913 58.3609 8.25913 58.5183 8.25913 58.6757C9.20348 58.833 9.51826 58.6757 10.1478 58.9904C10.1478 58.5183 10.62 58.3609 10.9348 58.2035C10.9348 58.5183 10.7774 58.6757 10.7774 58.833C11.2496 58.9904 11.0922 58.2035 11.407 58.2035C11.5643 58.3609 11.7217 58.5183 11.8791 58.6757C12.1939 58.0461 13.1383 57.7313 13.7678 57.4165C15.1843 55.3704 15.027 51.1209 15.4991 48.9174C15.9713 48.9174 15.8139 48.2878 16.1287 48.1304C16.2861 47.6583 15.9713 47.5009 15.9713 47.1861C16.7583 46.8713 16.1287 45.14 16.7583 44.5104C19.7487 44.8252 23.3687 45.14 26.0443 45.7696C27.6183 44.6678 29.8217 46.0843 32.0252 46.7139C32.34 46.5565 31.7104 46.2417 32.1826 46.0843C32.8122 46.7139 33.7565 47.0287 34.5435 46.7139C34.7009 47.0287 35.173 47.1861 35.4878 47.5009C35.96 47.6583 35.6452 47.0287 36.1174 47.1861C39.58 47.973 43.0426 49.3896 46.3478 49.8617C46.3478 50.0191 46.1904 50.0191 46.1904 50.1765C48.2365 49.8617 50.7548 52.5374 53.273 52.38C53.4304 52.8522 53.7452 52.5374 54.06 52.6948C53.9026 51.9078 53.7452 51.9078 53.9026 50.9635C53.4304 50.4913 52.9583 49.7043 52.9583 48.76C45.4035 41.0478 32.4974 39.4739 20.0635 36.6409C20.8504 36.1687 21.48 35.6965 22.5817 35.5391C22.7391 34.4374 24.7852 34.9096 24.9426 33.6504C24.4704 33.8078 23.3687 34.5948 23.0539 33.8078C24.4704 33.6504 26.0443 32.5487 27.1461 31.447C26.8313 31.447 26.8313 31.7617 26.3591 31.6043C25.7296 31.7617 24.9426 33.0209 24.4704 32.3913C25.1 32.0765 25.5722 31.2896 26.3591 31.6043C26.5165 31.1322 26.8313 30.9748 27.3035 30.9748C27.3035 31.1322 27.3035 31.447 27.3035 31.6043C27.933 30.9748 29.1922 30.9748 29.8217 29.873C29.3496 30.0304 29.8217 28.7713 30.4513 29.0861C30.2939 29.2435 30.1365 29.2435 30.1365 29.5583C31.0809 29.5583 31.553 29.2435 32.0252 28.6139C31.8678 28.6139 31.8678 28.4565 31.8678 28.2991C31.7104 28.2991 31.7104 28.2991 31.7104 28.1417C31.8678 28.1417 31.8678 28.1417 31.8678 28.2991C32.34 28.2991 32.0252 27.3548 32.6548 27.5122C32.6548 27.3548 32.8122 27.3548 32.6548 27.5122C33.2843 27.827 32.1826 28.1417 32.9696 28.2991C32.8122 27.9843 33.127 27.9843 33.4417 27.9843C33.5991 27.6696 33.9139 27.5122 34.3861 27.5122C34.3861 27.04 34.2287 26.4104 34.7009 26.4104C34.8583 27.1974 35.3304 26.4104 35.6452 25.9383C35.8026 26.0957 35.96 26.4104 36.2748 26.4104C36.4322 26.0957 36.5896 25.7809 37.0617 25.7809C37.0617 26.0957 36.5896 26.0957 36.747 26.5678C38.0061 25.7809 40.367 24.6791 40.2096 23.42C40.5243 23.42 40.5243 23.5774 40.8391 23.5774C43.2 21.2165 45.2461 18.3835 45.8757 14.2913C45.4035 10.5139 43.6722 7.99565 41.6261 5.63478C41.4687 5.79218 41.3113 5.79218 41.1539 5.79218C39.7374 14.6061 32.4974 17.7539 26.8313 22.4757C26.2017 22.633 25.4148 23.2626 24.4704 23.5774C23.9983 24.0496 24.313 24.8365 23.2113 24.8365C23.3687 22.4757 24.9426 21.3739 24.4704 19.013C24.9426 18.6983 25.887 17.9113 25.7296 17.2817C25.4148 17.4391 25.7296 17.4391 25.7296 17.2817ZM25.7296 15.0783C25.7296 15.0783 25.887 15.2357 25.7296 15.0783V15.0783ZM40.0522 22.9478C40.5243 22.633 39.7374 23.42 40.0522 22.9478V22.9478ZM39.7374 23.5774C39.7374 23.7348 39.58 23.7348 39.4226 23.7348C39.4226 23.5774 39.58 23.5774 39.7374 23.5774ZM24.7852 23.8922C24.7852 23.8922 24.9426 24.0496 24.7852 23.8922V23.8922ZM38.6357 24.3643C38.6357 24.0496 39.1078 24.0496 39.2652 24.207C39.2652 24.3643 38.793 24.3643 38.6357 24.3643ZM36.9043 24.8365C36.9043 24.6791 37.2191 24.5217 37.2191 24.3643C37.5339 24.3643 37.2191 24.9939 36.9043 24.8365C36.2748 24.6791 36.9043 25.3087 36.9043 24.8365ZM36.2748 25.4661C36.2748 25.4661 36.4322 25.6235 36.2748 25.4661V25.4661ZM37.5339 25.3087C37.6913 25.4661 36.9043 25.7809 37.0617 25.4661C37.0617 25.4661 37.3765 25.1513 37.5339 25.3087ZM33.127 27.3548C33.127 27.1974 33.4417 27.04 33.4417 26.8826C34.0713 27.04 33.4417 27.827 33.127 27.3548ZM28.0904 30.66C27.933 30.0304 28.5626 30.66 28.0904 30.66C28.0904 30.8174 27.7757 30.8174 28.0904 30.66ZM22.4243 34.4374C22.4243 34.28 22.7391 34.28 22.7391 34.1226C23.0539 33.9652 23.0539 34.9096 22.7391 34.7522C22.5817 34.7522 22.5817 34.7522 22.4243 34.7522C22.5817 34.5948 22.5817 34.4374 22.4243 34.4374ZM20.5357 34.7522C20.5357 34.28 21.0078 34.4374 21.3226 34.28C21.1652 34.5948 21.0078 34.9096 20.5357 34.7522ZM19.1191 35.3817C19.2765 34.9096 19.9061 35.067 20.2209 34.5948C20.5357 35.067 19.5913 35.3817 19.1191 35.3817ZM18.9617 36.4835C19.4339 35.8539 21.1652 34.28 21.7948 35.2243C20.3783 35.5391 20.2209 36.0113 18.9617 36.4835ZM18.0174 44.0383C18.0174 44.1957 17.86 44.1957 17.7026 44.1957C17.7026 44.0383 17.86 44.0383 18.0174 44.0383ZM19.7487 44.1957C19.7487 44.353 19.4339 44.353 19.2765 44.353C19.2765 44.1957 19.5913 44.1957 19.7487 44.1957ZM36.747 26.5678C35.96 26.4104 35.6452 27.3548 35.3304 27.6696C36.1174 27.6696 36.2748 27.04 36.747 26.5678ZM34.7009 27.5122C34.7009 27.6696 34.7009 27.827 34.7009 27.9843C35.173 28.2991 35.173 27.3548 34.7009 27.5122ZM33.4417 27.9843C33.7565 28.7713 32.6548 28.1417 32.8122 28.7713C33.2843 28.7713 33.7565 28.9287 34.0713 28.6139C34.0713 28.2991 33.9139 27.827 33.4417 27.9843ZM32.6548 29.2435C32.8122 29.2435 32.9696 29.5583 32.9696 29.2435C32.9696 29.0861 32.6548 29.0861 32.6548 29.2435ZM31.0809 29.7157L31.553 29.873C31.8678 29.5583 31.0809 29.4009 31.0809 29.7157ZM28.0904 32.0765C26.8313 32.2339 25.4148 32.8635 25.4148 33.6504C26.0443 33.6504 25.887 32.8635 26.6739 33.3357C26.6739 32.3913 27.933 32.8635 28.0904 32.0765ZM2.75043 35.6965C2.75043 35.2243 2.12087 35.8539 2.75043 35.6965V35.6965ZM80.6259 10.0417C80.6259 9.72696 80.4685 9.72696 80.4685 9.56956C81.2555 9.72696 81.5703 9.25478 81.8851 8.78261C81.0981 8.94 81.4129 8.15304 81.5703 7.36609C81.0981 7.36609 80.6259 7.83826 80.3111 7.36609C80.6259 7.36609 80.6259 7.0513 81.0981 7.2087C80.9407 6.26435 79.839 6.57913 79.5242 6.57913C79.6816 6.42174 79.839 6.42174 79.839 6.10696C79.3668 6.10696 79.5242 6.57913 78.8946 6.42174C79.6816 6.10696 78.4225 5.00522 79.3668 5.47739C79.3668 4.53304 78.7372 5.47739 78.5798 5.16261C78.5798 5.00522 78.8946 5.00522 78.8946 4.84783C77.9503 4.21826 77.6355 4.84783 76.8485 5.16261C76.8485 4.84783 76.8485 4.53304 76.5338 4.53304C75.9042 5.00522 75.2746 4.53304 74.4877 4.37565C71.1825 10.8287 66.7755 16.18 63.3129 22.4757C62.5259 23.1052 61.8964 24.0496 60.4798 24.0496C57.8042 22.1609 56.7025 17.9113 56.2303 14.4487C55.4433 13.8191 55.6007 12.4026 55.2859 11.4583C55.6007 11.4583 55.7581 11.3009 55.9155 11.3009C55.4433 8.78261 53.712 7.68087 52.2955 6.10696C52.2955 6.42174 52.1381 6.57913 51.8233 6.57913C50.879 5.00522 48.9903 5.79218 46.9442 5.47739C46.6294 5.94956 45.9998 6.26435 45.6851 6.73652C45.6851 10.0417 47.259 11.3009 47.4164 14.7635C49.7772 21.0591 51.1938 28.1417 58.7485 29.2435C55.7581 34.28 52.4529 39.3165 49.3051 44.1957C49.4625 44.1957 49.4625 44.5104 49.3051 44.1957C46.6294 49.0748 41.5929 53.167 41.5929 59.7774C41.7503 60.0922 42.0651 60.2496 42.3798 60.407C42.852 61.5087 43.7964 62.1383 44.7407 62.6104C46.472 62.7678 47.5738 64.1843 49.6198 64.3417C49.4625 63.24 50.879 64.4991 51.0364 64.027C50.7216 63.8696 51.3511 63.3974 51.5085 63.24C50.092 61.9809 50.2494 59.7774 51.3511 58.3609C51.3511 57.8887 51.5085 58.2035 51.6659 58.2035C52.9251 54.7409 55.2859 52.2226 56.7025 48.9174C58.119 47.0287 59.6929 45.14 60.4798 42.6217C60.0077 42.7791 59.6929 41.9922 60.3225 42.1496C60.1651 41.3626 60.7946 41.52 61.2668 41.6774C61.2668 40.2609 63.4703 39.3165 62.8407 38.2148C62.9981 38.5296 62.5259 38.8443 62.5259 38.5296C62.5259 38.3722 62.6833 38.2148 62.8407 38.2148C63.1555 37.5852 63.3129 36.7983 64.4146 36.7983C64.572 36.3261 65.2016 35.6965 64.7294 35.2243C64.8868 35.5391 64.2572 35.8539 64.2572 35.5391C64.2572 35.3817 64.4146 35.2243 64.7294 35.2243C65.0442 34.7522 64.8868 34.5948 64.8868 33.8078C65.0442 33.9652 65.2016 33.9652 65.5164 33.8078C65.2016 33.0209 65.6738 32.8635 65.8311 32.0765C65.6738 32.0765 65.6738 31.9191 65.8311 32.0765C66.3033 32.0765 65.9885 31.2896 66.6181 31.447C66.4607 31.6043 66.4607 31.7617 66.4607 31.9191C66.9329 31.9191 66.7755 31.6043 67.0903 31.9191C67.5625 31.2896 66.9329 31.1322 67.7198 30.66C67.5625 30.66 67.5625 30.5026 67.7198 30.5026V30.66C68.3494 30.3452 68.5068 29.2435 68.0346 28.9287C68.0346 29.0861 68.0346 29.2435 67.8772 29.2435C67.8772 29.4009 67.5625 29.4009 67.8772 29.2435C67.8772 29.0861 67.8772 29.0861 67.8772 28.9287C67.4051 29.2435 67.4051 28.4565 67.7198 28.4565C67.7198 28.6139 67.7198 28.7713 67.8772 28.9287H68.0346C68.192 28.4565 68.3494 28.7713 68.5068 28.9287C68.6642 28.7713 68.8216 28.2991 69.1364 28.1417C69.1364 28.4565 68.979 28.4565 68.979 28.6139C70.8677 27.1974 71.6546 24.6791 73.7007 23.42C73.8581 22.4757 74.3303 22.0035 74.9598 21.6887C74.9598 21.3739 74.9598 21.0591 74.8025 20.9017C75.5894 20.2722 76.219 20.2722 76.8485 19.3278C76.8485 19.013 76.3764 19.6426 76.3764 19.013C77.1633 19.013 77.0059 18.2261 76.6911 17.7539C77.7929 17.5965 77.1633 15.8652 78.2651 15.7078C78.1077 16.0226 77.9503 16.4948 77.7929 16.8096C78.5798 16.8096 78.8946 15.0783 78.7372 14.6061C78.5798 14.9209 78.4225 15.2357 78.1077 15.5504C78.1077 14.2913 79.9964 13.9765 79.5242 12.7174C79.5242 12.8748 79.052 13.1896 79.052 12.8748C79.2094 12.4026 79.6816 12.2452 80.1538 12.0878C79.9964 10.9861 80.9407 10.9861 80.9407 10.0417C80.9407 9.88435 80.7833 10.0417 80.6259 10.0417C80.6259 10.1991 80.1538 10.8287 79.9964 10.3565C79.9964 10.0417 80.3111 10.0417 80.6259 10.0417ZM76.8485 5.63478C76.8485 5.63478 77.0059 5.79218 76.8485 5.63478V5.63478ZM78.7372 5.47739C78.7372 5.63478 78.5798 5.63478 78.4225 5.63478C78.4225 5.47739 78.5798 5.47739 78.7372 5.47739ZM79.6816 7.2087C79.6816 6.73652 80.3111 7.36609 79.6816 7.2087C79.6816 7.36609 79.3668 7.36609 79.6816 7.2087ZM80.1538 7.2087C80.1538 7.2087 80.3111 7.36609 80.1538 7.2087V7.2087ZM79.839 11.773C79.839 11.773 79.9964 11.9304 79.839 11.773V11.773ZM78.8946 13.5043C79.2094 12.8748 79.052 13.9765 78.8946 13.5043V13.5043ZM78.5798 14.1339C78.7372 13.5043 78.7372 14.7635 78.5798 14.1339V14.1339ZM77.7929 15.2357C77.9503 14.6061 77.9503 15.8652 77.7929 15.2357V15.2357ZM77.6355 15.8652C77.6355 15.8652 77.7929 16.0226 77.6355 15.8652V15.8652ZM75.5894 18.3835C75.7468 17.7539 75.7468 19.013 75.5894 18.3835V18.3835ZM74.9598 19.3278C74.9598 19.1704 74.9598 19.1704 74.9598 19.013C75.1172 19.013 75.2746 19.013 75.432 19.013C75.2746 19.1704 75.2746 19.3278 75.2746 19.4852C75.1172 19.4852 75.1172 19.3278 74.9598 19.3278ZM74.3303 20.587C73.8581 20.587 74.3303 19.9574 74.6451 20.1148C74.6451 20.2722 74.3303 20.4296 74.3303 20.587ZM65.9885 28.7713C65.9885 28.6139 65.9885 28.4565 65.9885 28.2991C66.1459 28.2991 66.3033 28.4565 66.4607 28.4565C66.4607 28.6139 66.4607 28.6139 66.4607 28.7713C66.3033 28.7713 66.1459 28.7713 65.9885 28.7713C65.8311 29.2435 65.8311 29.7157 65.5164 29.873C64.8868 29.873 65.5164 29.7157 65.359 29.4009H65.2016C65.2016 29.5583 64.8868 29.5583 65.2016 29.4009C65.2016 29.2435 65.359 29.2435 65.359 29.4009C65.6738 29.4009 65.6738 28.9287 65.8311 28.7713H65.9885ZM66.6181 28.4565C66.7755 27.9843 66.9329 29.0861 66.6181 28.4565V28.4565ZM65.359 28.9287C65.359 28.9287 65.5164 29.0861 65.359 28.9287V28.9287ZM67.5625 29.7157C67.5625 29.7157 67.7198 29.873 67.5625 29.7157V29.7157ZM64.2572 30.0304C64.2572 30.0304 64.4146 30.1878 64.2572 30.0304V30.0304ZM64.8868 30.5026C64.8868 30.3452 64.8868 30.1878 65.0442 30.0304C65.359 30.0304 65.2016 30.8174 64.8868 30.5026C64.8868 30.66 64.8868 30.8174 64.7294 30.8174C64.7294 31.2896 64.572 31.6043 64.2572 31.7617C64.2572 31.9191 63.9425 31.9191 64.2572 31.7617C64.0998 31.2896 64.4146 31.1322 64.572 30.8174H64.7294C64.7294 30.66 64.7294 30.5026 64.8868 30.5026ZM63.9425 30.8174C63.9425 30.3452 64.572 29.873 64.572 30.66C64.2572 30.3452 64.2572 30.66 63.9425 30.8174C63.6277 30.9748 63.9425 30.9748 63.9425 30.8174ZM65.359 30.66C65.359 30.5026 65.5164 30.5026 65.359 30.66C65.5164 31.1322 65.0442 31.1322 65.0442 31.447C64.572 31.2896 65.0442 30.66 65.359 30.66ZM66.9329 31.6043C66.9329 31.6043 67.0903 31.7617 66.9329 31.6043V31.6043ZM65.2016 31.9191C65.2016 32.0765 65.0442 32.0765 64.8868 32.0765C64.8868 31.9191 65.0442 31.9191 65.2016 31.9191ZM59.8503 32.3913C59.8503 32.3913 60.0077 32.5487 59.8503 32.3913V32.3913ZM62.0538 32.3913C62.0538 32.3913 62.2111 32.5487 62.0538 32.3913V32.3913ZM58.5911 33.8078C58.5911 33.8078 58.7485 33.9652 58.5911 33.8078V33.8078ZM59.2207 33.9652C59.2207 33.9652 59.3781 34.1226 59.2207 33.9652V33.9652ZM57.4894 34.28C57.4894 34.28 57.6468 34.4374 57.4894 34.28V34.28ZM60.4798 36.1687C60.4798 36.1687 60.6372 36.3261 60.4798 36.1687V36.1687ZM62.2111 39.1591C62.2111 39.1591 62.3685 39.3165 62.2111 39.1591V39.1591ZM60.3225 41.2052C60.3225 41.0478 60.4798 41.0478 60.3225 41.2052C60.3225 41.3626 60.0077 41.3626 60.3225 41.2052ZM55.4433 45.2974C55.4433 45.2974 55.6007 45.4548 55.4433 45.2974V45.2974ZM50.879 46.0843C50.7216 46.0843 50.7216 45.927 50.879 46.0843C51.0364 46.0843 51.0364 46.3991 50.879 46.0843ZM56.8598 48.1304C56.8598 48.1304 57.0172 48.2878 56.8598 48.1304V48.1304ZM55.1285 51.1209C55.1285 51.1209 55.2859 51.2783 55.1285 51.1209V51.1209ZM51.3511 57.2591C51.3511 57.1017 51.5085 56.9443 51.8233 56.9443C51.8233 57.1017 51.6659 57.2591 51.3511 57.2591ZM43.7964 61.5087C43.639 61.5087 43.639 61.3513 43.7964 61.5087C43.9538 61.5087 43.9538 61.8235 43.7964 61.5087ZM80.3111 5.79218C80.6259 6.42174 80.4685 5.32 80.3111 5.79218V5.79218ZM55.9155 13.6617C56.0729 14.2913 56.0729 13.0322 55.9155 13.6617V13.6617ZM77.0059 18.0687C77.0059 18.0687 77.1633 18.2261 77.0059 18.0687V18.0687ZM68.5068 29.4009C68.5068 29.7157 68.5068 30.0304 68.6642 30.0304C68.8216 29.873 68.979 29.2435 68.5068 29.4009ZM65.8311 33.0209C65.9885 32.8635 66.3033 32.7061 66.4607 32.5487C66.1459 32.5487 66.1459 32.3913 65.9885 32.3913C65.8311 32.5487 65.8311 32.7061 65.8311 33.0209ZM65.8311 33.0209C65.8311 33.1783 65.5164 33.1783 65.8311 33.0209V33.0209ZM60.3225 42.1496C60.4798 42.1496 60.4798 42.4643 60.3225 42.1496V42.1496ZM51.3511 58.3609C51.1938 59.1478 51.8233 58.5183 51.3511 58.3609V58.3609ZM47.4164 64.027C47.4164 64.027 47.5738 64.1843 47.4164 64.027V64.027ZM49.7772 64.1843C49.7772 64.1843 49.9346 64.3417 49.7772 64.1843V64.1843ZM85.9871 30.9748C85.8297 30.0304 86.9314 28.4565 86.6166 27.04C88.3479 26.0957 85.9871 24.0496 88.0332 23.7348C88.0332 23.1052 87.561 22.9478 87.561 22.1609C88.5053 21.5313 87.561 20.587 88.1906 20.2722C87.4036 20.2722 88.0332 19.8 87.8758 19.1704C88.1906 19.013 88.5053 19.1704 88.5053 18.6983C88.5053 18.3835 88.0332 19.1704 88.1906 18.5409C88.8201 18.3835 88.6627 17.2817 89.1349 16.8096C88.5053 16.6522 88.5053 15.7078 89.2923 15.7078C89.4497 16.18 88.6627 16.4948 89.1349 16.6522C90.0792 14.9209 91.0236 12.0878 90.394 10.5139C91.0236 10.5139 90.7088 9.41218 91.0236 9.09739C88.0332 7.52348 84.8853 7.2087 80.7932 6.73652C80.4784 7.36609 80.321 7.99565 80.0062 8.62522C80.4784 13.1896 78.7471 17.9113 78.5897 23.1052C78.4323 28.1417 77.8027 33.1783 77.1732 38.2148C75.5992 43.7235 75.7566 50.0191 75.2845 56.3148C76.2288 56.6296 76.701 56.4722 77.3306 56.9443C77.8027 57.1017 77.4879 56.4722 77.9601 56.4722C77.9601 56.4722 78.1175 56.6296 78.1175 56.787C78.5897 56.9443 78.5897 56.6296 78.9045 56.6296C78.9045 56.4722 79.0619 56.4722 78.9045 56.6296C78.9045 56.787 78.9045 56.9443 79.0619 56.9443C79.3766 55.8426 80.1636 56 81.1079 55.213C81.1079 55.5278 80.9506 56 81.4227 55.8426C81.7375 54.4261 82.3671 51.7504 82.3671 50.4913C83.154 50.4913 82.2097 51.7504 82.6819 51.7504C82.6819 51.593 82.9966 51.593 83.154 51.593C83.3114 50.6487 82.9966 49.8617 83.154 49.2322C82.6819 48.9174 83.154 49.8617 82.8392 49.8617H82.6819C82.6819 48.9174 82.2097 48.4452 82.8392 47.5009C82.8392 47.6583 82.8392 47.8157 82.9966 47.8157C82.9966 47.6583 83.154 47.8157 83.154 47.8157C83.154 47.1861 83.4688 47.8157 83.4688 47.3435C83.4688 47.1861 83.4688 47.0287 83.3114 47.0287C83.3114 47.1861 83.154 47.1861 83.3114 47.0287C83.4688 46.5565 82.9966 46.3991 83.4688 46.3991C83.4688 44.9826 84.4132 42.7791 83.941 41.0478C83.941 41.2052 83.7836 41.2052 83.6262 41.2052C84.4132 40.5757 84.7279 38.8443 84.2558 38.2148C84.2558 38.3722 84.2558 38.5296 84.0984 38.5296C84.0984 38.687 84.0984 38.687 83.941 38.687C83.941 38.687 83.941 38.5296 84.0984 38.5296C83.6262 38.0574 84.4132 37.9 84.7279 38.2148C84.7279 36.4835 85.0427 34.28 86.1445 32.2339C85.5149 32.0765 85.6723 31.447 85.9871 30.9748ZM86.774 26.8826C86.774 26.8826 86.9314 27.04 86.774 26.8826V26.8826ZM86.1445 28.1417C86.3019 27.6696 86.4592 28.7713 86.1445 28.1417V28.1417ZM85.3575 29.873C85.3575 29.873 85.5149 29.873 85.3575 29.873V29.873ZM85.3575 30.0304C85.3575 30.0304 85.5149 30.1878 85.3575 30.0304V30.0304ZM84.8853 31.7617C85.2001 31.1322 85.0427 32.0765 84.8853 31.7617V31.7617ZM84.5706 34.7522C84.4132 34.7522 84.4132 34.4374 84.4132 34.28C84.8853 34.28 84.5706 34.4374 84.5706 34.7522ZM83.941 35.067C83.941 35.067 84.0984 35.2243 83.941 35.067V35.067ZM84.5706 34.9096C84.5706 35.067 84.4132 35.067 84.2558 35.067C84.2558 34.9096 84.4132 34.9096 84.5706 34.9096ZM84.2558 36.0113C84.2558 35.6965 84.2558 35.3817 84.7279 35.3817C84.7279 35.6965 84.4132 35.8539 84.5706 36.3261C84.4132 36.3261 84.4132 36.0113 84.2558 36.0113C84.0984 36.1687 84.2558 36.4835 83.7836 36.4835C83.7836 36.3261 83.7836 36.1687 83.941 36.0113C83.4688 35.8539 84.0984 35.2243 83.941 36.0113C84.0984 36.0113 84.0984 36.0113 84.2558 36.0113ZM84.7279 36.0113C84.7279 36.0113 84.8853 36.1687 84.7279 36.0113V36.0113ZM83.3114 36.3261C83.3114 36.3261 83.4688 36.4835 83.3114 36.3261V36.3261ZM84.2558 36.4835C84.2558 36.4835 84.4132 36.6409 84.2558 36.4835V36.4835ZM84.0984 37.113C83.941 37.113 83.941 37.2704 83.6262 37.2704C83.4688 36.7983 83.941 36.9557 83.941 36.6409C84.0984 36.6409 84.0984 36.9557 84.0984 37.113C84.4132 37.2704 84.4132 37.5852 84.2558 37.7426C83.941 37.7426 84.0984 37.4278 84.0984 37.113ZM84.4132 37.9C84.4132 37.9 84.5706 38.0574 84.4132 37.9V37.9ZM83.4688 38.687C83.4688 38.687 83.4688 38.3722 83.4688 38.2148C83.6262 38.2148 83.6262 38.2148 83.7836 38.2148C83.7836 38.3722 83.7836 38.687 83.7836 38.687C83.6262 38.687 83.6262 38.687 83.4688 38.687ZM83.941 39.0017C83.941 39.0017 84.0984 39.1591 83.941 39.0017V39.0017ZM83.4688 39.1591C83.6262 38.687 83.6262 39.7887 83.4688 39.1591V39.1591ZM83.4688 39.7887C83.4688 39.7887 83.6262 39.9461 83.4688 39.7887V39.7887ZM83.3114 43.2513C83.154 43.8809 83.154 43.0939 82.8392 43.0939C82.8392 42.9365 83.154 42.9365 83.154 42.9365C83.154 42.7791 82.9966 42.7791 82.8392 42.7791C83.4688 41.9922 82.6819 40.8904 83.4688 40.5757C83.6262 41.0478 83.154 41.6774 83.4688 41.8348C83.4688 41.6774 83.6262 41.6774 83.4688 41.8348C83.3114 42.307 83.154 42.4643 83.4688 42.9365C83.4688 43.0939 82.9966 43.0939 83.3114 43.2513C83.4688 43.0939 83.3114 43.0939 83.3114 43.2513ZM82.8392 44.1957C82.9966 43.5661 82.9966 44.8252 82.8392 44.1957V44.1957ZM82.6819 44.6678C82.6819 44.6678 82.8392 44.8252 82.6819 44.6678V44.6678ZM82.8392 45.4548C82.9966 44.8252 82.9966 45.927 82.8392 45.4548V45.4548ZM82.8392 45.927C82.8392 45.7696 82.9966 45.7696 82.8392 45.927C82.9966 46.7139 82.3671 46.0843 82.8392 45.927ZM83.154 46.7139C83.154 46.8713 83.154 46.8713 82.9966 46.8713C82.9966 46.7139 83.154 46.7139 83.154 46.7139ZM82.9966 47.5009C83.154 46.8713 83.154 47.973 82.9966 47.5009V47.5009ZM82.8392 50.8061C82.8392 50.8061 82.9966 50.9635 82.8392 50.8061V50.8061ZM82.8392 51.2783C82.8392 51.2783 82.9966 51.4357 82.8392 51.2783V51.2783ZM80.7932 53.4817C81.2653 53.167 80.6358 54.7409 80.7932 53.4817V53.4817ZM81.4227 54.1113C81.4227 54.2687 81.2653 54.2687 81.1079 54.2687C81.1079 54.1113 81.2653 54.1113 81.4227 54.1113ZM80.7932 54.8983C80.7932 54.8983 80.9506 55.0557 80.7932 54.8983V54.8983ZM76.3862 56.3148C76.3862 56.3148 76.5436 56.4722 76.3862 56.3148V56.3148ZM88.0332 22.9478C88.0332 22.9478 88.1906 23.1052 88.0332 22.9478V22.9478ZM88.1906 24.0496C88.1906 24.0496 88.3479 24.207 88.1906 24.0496V24.0496ZM86.6166 29.5583C86.6166 29.5583 86.774 29.7157 86.6166 29.5583V29.5583ZM85.9871 30.9748C85.9871 30.8174 86.1445 30.8174 85.9871 30.9748V30.9748ZM83.4688 46.3991C83.3114 47.0287 83.941 46.3991 83.4688 46.3991V46.3991ZM83.154 48.1304C82.9966 48.4452 83.154 48.4452 82.9966 49.0748C83.3114 49.2322 83.154 48.1304 83.154 48.1304ZM82.6819 49.8617H82.8392C82.8392 49.7043 82.6819 49.7043 82.6819 49.8617ZM79.8488 56.4722C79.8488 56.4722 80.0062 56.4722 79.8488 56.4722V56.4722ZM76.0714 56.9443C76.2288 57.5739 76.2288 56.4722 76.0714 56.9443V56.9443ZM78.1175 56.787C77.9601 56.787 77.9601 56.787 77.9601 56.787C77.9601 56.9443 77.9601 56.9443 77.9601 57.1017C78.1175 57.1017 78.1175 56.9443 78.1175 56.787ZM77.3306 57.2591C77.3306 57.2591 77.4879 57.4165 77.3306 57.2591V57.2591ZM126.624 4.69044V4.53304C126.466 4.53304 126.466 4.21826 126.309 4.21826C126.309 4.37565 126.309 4.69044 126.151 4.69044C126.151 4.37565 125.994 4.37565 125.837 4.37565C125.837 4.69044 125.994 5.16261 125.522 5.00522C125.837 4.53304 125.05 4.84783 124.735 4.53304C124.577 4.84783 124.42 5.00522 124.42 5.16261C124.577 5.16261 124.577 5.47739 124.42 5.16261C124.105 5.16261 124.263 5.63478 123.79 5.47739C123.79 5.63478 123.79 5.63478 123.79 5.79218C123.948 6.26435 123.948 5.47739 124.42 5.63478C124.577 6.26435 125.05 6.26435 125.05 6.73652C125.05 6.57913 125.207 6.57913 125.207 6.73652H125.05C125.05 7.52348 124.577 7.68087 124.263 7.99565C124.105 7.68087 124.105 7.36609 123.948 7.2087C123.948 7.52348 123.948 7.83826 123.79 7.83826C123.948 7.36609 123.79 7.2087 123.318 7.36609C123.161 7.36609 123.318 7.83826 123.004 7.83826C123.004 7.99565 122.689 7.99565 123.004 7.83826C123.004 7.36609 122.217 7.36609 122.689 6.89391C121.902 7.0513 121.115 7.36609 121.587 8.15304H121.43C121.272 8.46783 120.957 8.31044 120.643 8.46783C120.485 8.94 120.8 8.94 120.8 9.25478C121.115 9.09739 121.43 8.78261 121.587 9.25478C120.957 9.25478 121.272 10.0417 120.643 10.0417C120.643 10.1991 120.328 10.1991 120.643 10.0417C120.643 9.56956 121.272 9.72696 120.8 9.25478C120.485 9.25478 120.485 9.09739 120.17 9.09739C114.032 18.0687 108.996 28.7713 103.644 39.0017C103.487 36.9557 103.644 34.28 102.7 33.0209C103.487 31.1322 102.7 30.0304 102.7 28.2991C101.913 28.7713 101.913 26.253 102.7 27.6696C102.7 27.3548 102.7 26.8826 102.7 26.5678C102.385 26.5678 102.228 26.8826 102.228 26.5678C102.07 25.7809 102.7 25.9383 102.543 25.1513C102.543 24.9939 101.913 24.8365 102.385 24.6791C101.756 20.4296 101.913 16.967 100.811 13.1896C98.2931 12.0878 96.4044 9.25478 93.2566 9.88435C92.9418 10.5139 92.7844 11.3009 92.627 11.9304C93.2566 12.8748 93.0992 13.9765 92.627 14.9209C93.8861 28.9287 93.0992 42.4643 96.8766 56.787C97.5061 57.1017 98.1357 57.4165 98.2931 58.2035C99.7096 58.0461 100.339 59.7774 101.441 58.9904C101.756 59.7774 102.857 60.0922 103.33 59.3052C103.33 59.4626 103.33 59.62 103.33 59.7774C104.117 59.7774 104.589 59.62 104.904 59.1478C105.69 59.9348 106.005 58.3609 106.95 59.1478C107.737 57.8887 107.579 55.213 108.681 53.4817C108.524 53.4817 108.366 53.3243 108.366 53.167C108.838 53.3243 108.996 52.5374 108.681 52.38C108.524 53.0096 108.051 52.2226 107.737 52.38C107.422 53.6391 107.264 54.2687 106.635 54.8983C106.477 53.6391 107.264 53.3243 107.107 52.0652C107.894 52.0652 107.264 50.1765 108.051 50.6487C108.366 47.6583 110.097 45.7696 110.727 42.6217C111.042 42.307 111.199 42.7791 111.514 42.4643C111.042 41.52 112.144 41.52 111.671 40.5757C112.144 40.4183 112.301 39.6313 112.773 39.4739C112.458 38.3722 113.403 37.113 114.662 36.9557C114.819 37.2704 115.291 37.113 115.291 37.5852C114.662 37.113 114.977 38.8443 114.19 38.687C114.032 38.2148 114.662 38.5296 114.504 37.9C113.56 38.3722 113.56 38.8443 114.347 39.4739C114.977 38.3722 116.393 36.6409 116.078 35.6965C116.078 36.1687 115.921 36.4835 115.606 36.6409C115.764 35.8539 114.977 36.4835 114.977 36.1687C114.819 35.8539 115.606 35.5391 115.134 35.2243C114.819 35.6965 114.662 36.4835 114.032 36.6409C114.819 35.3817 115.449 33.1783 116.393 31.7617C116.865 31.1322 117.337 31.1322 117.652 31.447C117.495 32.0765 117.18 32.3913 116.865 32.7061C116.865 33.0209 117.023 33.0209 117.023 33.3357C117.18 33.3357 117.18 33.3357 117.18 33.493C117.337 33.493 117.337 33.6504 117.495 33.6504C117.967 32.8635 118.124 32.3913 117.967 31.2896C118.282 31.2896 118.439 31.2896 118.754 31.2896C118.754 30.66 117.967 30.5026 118.439 30.0304C117.652 29.873 117.81 30.5026 117.337 30.5026C117.337 30.1878 117.18 30.1878 117.18 30.0304C117.81 30.1878 117.495 29.2435 117.967 29.2435C117.967 29.5583 118.911 29.7157 119.069 29.4009C118.754 28.7713 120.013 29.2435 120.17 28.6139C119.856 28.6139 119.541 28.2991 119.541 27.9843C119.856 27.6696 120.013 28.2991 120.328 28.2991C120.643 27.3548 121.587 26.7252 120.957 25.6235C121.272 25.1513 121.902 24.9939 122.217 24.5217C122.059 24.207 121.902 24.6791 121.744 24.3643C121.43 24.6791 120.643 24.8365 120.328 24.8365C120.328 24.9939 120.013 24.9939 120.328 24.8365C120.485 24.3643 120.8 24.0496 120.957 23.5774C121.43 23.42 121.272 24.0496 121.587 24.0496C121.587 23.8922 121.744 23.7348 122.059 23.7348C122.059 23.8922 121.902 23.8922 121.902 24.0496C122.217 24.0496 122.374 24.207 122.531 24.207C122.531 23.8922 122.374 23.8922 122.374 23.5774C122.689 23.42 123.004 23.42 123.161 23.1052C123.318 22.633 123.004 22.4757 122.846 22.1609C123.004 22.1609 123.161 22.0035 123.318 22.0035C123.318 21.8461 123.318 21.6887 123.476 21.6887C123.476 21.8461 123.476 22.0035 123.318 22.0035C123.318 22.1609 123.318 22.3183 123.476 22.3183C124.263 20.2722 126.309 18.6983 126.466 16.4948C126.781 16.3374 127.253 16.3374 127.41 16.0226C127.096 16.0226 127.096 15.7078 127.096 15.393C127.568 15.2357 127.568 15.7078 127.883 15.393C127.883 15.0783 127.725 14.4487 128.197 14.6061C128.827 13.9765 128.355 14.1339 128.512 13.5043C128.67 13.5043 128.984 13.5043 129.142 13.5043C129.299 13.0322 129.142 12.56 129.614 12.0878C129.771 12.0878 129.771 12.4026 129.929 12.4026C130.086 11.9304 130.401 11.3009 130.401 10.8287C129.771 11.1435 129.457 11.4583 128.827 11.4583C128.984 12.2452 129.142 12.7174 128.355 12.8748C128.355 13.0322 128.197 13.0322 128.197 12.8748C127.883 12.8748 128.04 13.347 127.725 13.347C127.568 12.56 128.197 12.0878 128.827 11.4583C128.984 10.9861 129.142 10.5139 129.614 10.9861C129.457 10.6713 129.929 10.8287 129.929 10.5139C129.771 10.3565 129.457 10.3565 129.457 10.1991C130.244 9.41218 130.716 8.46783 131.817 7.99565C131.66 7.2087 132.29 6.89391 131.975 6.57913C131.188 6.42174 131.03 7.2087 130.086 7.2087C129.929 6.73652 129.299 6.57913 128.67 6.57913C128.67 6.73652 128.512 6.73652 128.512 6.57913H128.67C128.827 5.94956 129.771 6.42174 130.244 5.79218C130.244 5.16261 129.929 5.00522 129.614 4.69044C129.614 5.00522 128.984 4.69044 128.67 4.84783C128.512 5.63478 127.41 5.63478 127.096 6.26435C127.096 6.10696 126.938 5.94956 126.781 5.94956C126.781 6.42174 126.151 5.79218 126.781 5.94956C126.781 5.79218 126.781 5.79218 126.781 5.63478C126.309 5.16261 125.837 6.42174 125.522 5.94956C125.994 5.63478 126.151 5.47739 125.994 4.84783C126.309 4.84783 126.466 4.69044 126.624 4.69044ZM124.892 5.47739C124.42 5.32 124.892 4.84783 125.364 5.00522C125.364 5.32 124.892 5.16261 124.892 5.47739ZM128.984 5.32C128.827 5.32 128.827 5.16261 128.984 5.32C129.614 5.32 128.984 5.94956 128.984 5.32ZM128.67 5.63478C128.67 5.63478 128.827 5.79218 128.67 5.63478V5.63478ZM125.364 5.63478C125.364 5.79218 125.05 5.79218 124.892 5.79218C124.892 5.63478 125.207 5.63478 125.364 5.63478ZM129.299 5.94956C129.299 5.94956 129.457 6.10696 129.299 5.94956V5.94956ZM126.309 6.73652C126.624 6.10696 126.466 7.2087 126.309 6.73652V6.73652ZM128.197 7.0513C128.197 7.0513 128.355 7.2087 128.197 7.0513V7.0513ZM125.837 7.52348C125.837 7.68087 125.994 7.68087 125.994 7.99565C125.837 7.99565 125.522 7.99565 125.522 8.15304C125.207 8.15304 125.522 7.52348 125.364 7.2087C125.522 7.2087 125.679 7.52348 125.837 7.52348C125.994 7.36609 125.837 7.36609 125.837 7.52348ZM129.614 7.2087C129.614 7.36609 129.457 7.36609 129.299 7.36609C129.299 7.2087 129.457 7.2087 129.614 7.2087ZM122.217 7.52348C122.217 7.52348 122.374 7.68087 122.217 7.52348V7.52348ZM129.771 7.52348C129.771 7.52348 129.929 7.68087 129.771 7.52348V7.52348ZM127.253 8.15304C127.253 7.68087 127.253 7.52348 127.725 7.52348C127.568 7.68087 127.568 8.15304 127.253 8.15304C127.253 8.31044 127.096 8.31044 126.938 8.31044C127.096 8.94 126.466 8.31044 126.938 8.31044C126.938 8.15304 127.096 8.15304 127.253 8.15304ZM128.984 7.68087C128.984 7.68087 129.142 7.83826 128.984 7.68087V7.68087ZM128.355 7.83826C128.355 7.36609 128.984 7.99565 128.355 7.83826C128.355 8.31044 127.725 7.68087 128.355 7.83826ZM121.902 8.46783C121.43 8.46783 121.902 7.99565 121.902 7.83826C122.217 7.83826 121.902 8.31044 121.902 8.46783ZM128.67 8.15304C128.67 7.99565 128.827 7.99565 128.67 8.15304C128.67 8.31044 128.355 8.31044 128.67 8.15304ZM125.207 8.62522C125.207 8.62522 125.364 8.78261 125.207 8.62522V8.62522ZM124.105 9.72696C124.263 9.09739 124.263 10.3565 124.105 9.72696V9.72696ZM123.004 10.0417C123.004 10.0417 123.161 10.1991 123.004 10.0417V10.0417ZM121.902 10.3565C121.902 10.3565 122.059 10.5139 121.902 10.3565V10.3565ZM119.856 10.5139C120.013 9.88435 120.013 11.1435 119.856 10.5139V10.5139ZM120.328 10.6713C120.328 10.5139 120.485 10.5139 120.328 10.6713C120.328 10.8287 120.328 10.8287 120.17 10.8287C120.17 11.1435 120.17 11.4583 119.856 11.3009C120.17 11.1435 119.541 10.8287 120.17 10.8287C120.17 10.6713 120.17 10.6713 120.328 10.6713ZM120.643 10.9861C120.8 10.3565 120.8 11.6157 120.643 10.9861V10.9861ZM123.004 10.9861C123.004 10.9861 123.161 11.1435 123.004 10.9861V10.9861ZM122.217 11.1435C122.217 11.3009 122.059 11.3009 121.902 11.3009C121.902 11.1435 122.059 11.1435 122.217 11.1435ZM122.689 11.4583C122.689 11.4583 122.846 11.6157 122.689 11.4583V11.4583ZM121.902 11.6157C121.902 11.4583 122.059 11.4583 121.902 11.6157C121.902 12.0878 121.272 11.4583 121.902 11.6157ZM119.541 11.773C119.856 11.1435 119.698 12.2452 119.541 11.773V11.773ZM122.374 11.9304C122.374 11.773 122.374 11.773 122.374 11.6157C122.531 11.6157 122.531 11.6157 122.689 11.6157C122.689 11.773 122.689 11.773 122.689 11.9304C122.531 11.9304 122.531 11.9304 122.374 11.9304ZM122.846 11.773C123.004 11.1435 123.004 12.4026 122.846 11.773V11.773ZM127.725 11.773C127.725 11.773 127.883 11.9304 127.725 11.773V11.773ZM121.902 12.4026C122.689 12.2452 121.115 13.347 121.902 12.56V12.4026ZM118.754 13.347C118.282 13.1896 118.911 13.0322 118.754 12.7174C119.069 12.7174 118.754 13.1896 118.754 13.347ZM124.263 12.8748C124.42 13.1896 123.633 13.1896 123.79 12.8748C123.79 12.7174 124.263 12.7174 124.263 12.8748ZM128.827 13.1896C128.827 13.1896 128.984 13.347 128.827 13.1896V13.1896ZM125.522 13.8191C125.522 13.1896 126.151 13.8191 125.522 13.8191C125.522 13.9765 125.207 13.9765 125.522 13.8191ZM127.253 14.6061C126.466 14.9209 126.781 13.5043 127.568 13.5043C127.568 13.9765 126.938 14.4487 127.253 14.6061ZM118.124 13.6617C118.754 13.6617 117.967 14.6061 118.124 13.6617V13.6617ZM126.466 14.6061C126.466 14.6061 126.624 14.7635 126.466 14.6061V14.6061ZM117.337 15.393C117.337 15.0783 117.18 14.6061 117.652 14.7635C117.652 15.0783 117.495 15.2357 117.337 15.393C117.023 15.5504 117.337 15.5504 117.337 15.393ZM126.309 15.0783C126.309 14.9209 126.309 14.9209 126.309 14.7635C126.466 14.7635 126.466 14.7635 126.624 14.7635C126.624 14.9209 126.624 14.9209 126.624 15.0783C126.466 15.0783 126.466 15.0783 126.309 15.0783ZM126.151 15.393C126.309 14.7635 126.309 16.0226 126.151 15.393V15.393ZM119.856 15.5504C119.856 15.5504 120.013 15.7078 119.856 15.5504V15.5504ZM117.023 15.7078C117.495 16.4948 116.236 16.3374 117.023 15.7078V15.7078ZM120.013 15.8652C120.013 15.8652 120.17 16.0226 120.013 15.8652V15.8652ZM116.865 16.4948C116.55 17.1243 115.921 16.4948 116.865 16.4948V16.4948ZM119.698 17.2817C119.069 17.1243 119.698 16.8096 119.856 16.4948C120.328 16.8096 119.541 16.8096 119.698 17.2817ZM118.282 17.2817C118.282 17.2817 118.439 17.4391 118.282 17.2817V17.2817ZM124.577 17.4391C124.735 17.2817 124.892 17.1243 125.207 17.1243C125.207 17.5965 125.207 17.7539 124.735 17.7539C124.735 17.5965 124.735 17.4391 124.577 17.4391ZM118.754 17.4391C118.754 17.4391 118.911 17.5965 118.754 17.4391V17.4391ZM115.449 18.5409C115.606 18.2261 115.764 17.9113 115.921 17.5965C116.236 17.9113 115.764 18.5409 115.449 18.5409ZM125.364 18.0687C125.364 18.0687 125.522 18.2261 125.364 18.0687V18.0687ZM122.374 18.5409C122.374 17.9113 123.004 18.5409 122.374 18.5409C122.374 18.6983 122.059 18.6983 122.374 18.5409ZM118.282 18.6983C118.282 18.6983 118.439 18.8557 118.282 18.6983V18.6983ZM123.318 19.8C123.476 19.4852 123.476 19.013 123.633 18.6983C124.105 19.013 123.633 19.8 123.318 19.8C123.161 20.2722 123.004 20.7443 122.689 21.0591C122.374 20.7443 123.161 20.1148 123.318 19.8ZM117.967 19.013C117.967 19.013 118.124 19.1704 117.967 19.013V19.013ZM114.977 19.1704C114.977 19.1704 115.134 19.3278 114.977 19.1704V19.1704ZM118.282 19.3278C118.282 19.3278 118.439 19.4852 118.282 19.3278V19.3278ZM117.18 20.1148C117.81 19.6426 117.023 19.4852 118.124 19.3278C117.967 19.6426 117.81 20.2722 117.18 20.1148ZM114.662 20.2722C114.347 20.1148 114.662 19.9574 114.662 19.8C114.977 19.9574 114.662 20.1148 114.662 20.2722ZM117.337 20.4296C117.337 20.4296 117.495 20.587 117.337 20.4296V20.4296ZM117.18 20.9017C117.18 20.9017 117.337 21.0591 117.18 20.9017V20.9017ZM113.088 22.9478C113.245 22.633 113.245 22.3183 113.56 21.8461C113.717 21.8461 113.717 21.8461 113.717 22.0035C113.717 22.1609 113.717 22.1609 113.875 22.1609C113.403 22.3183 113.56 22.9478 113.088 22.9478C113.088 23.1052 112.93 23.2626 112.93 23.42C112.616 23.42 112.773 23.1052 112.93 22.9478H113.088ZM120.485 22.1609C120.485 22.1609 120.643 22.3183 120.485 22.1609V22.1609ZM114.032 22.4757C114.032 22.4757 114.19 22.633 114.032 22.4757V22.4757ZM118.439 22.633C118.282 23.1052 117.967 22.4757 117.81 22.4757C117.967 22.0035 118.282 22.633 118.439 22.633ZM121.744 22.4757C121.744 22.3183 121.902 22.3183 121.744 22.4757C121.902 22.633 121.902 22.9478 121.902 23.2626C122.531 23.2626 121.902 23.8922 121.902 23.2626C121.744 23.2626 121.744 23.42 121.744 23.5774C121.587 23.5774 121.43 23.2626 121.272 23.2626C121.115 22.7904 121.744 22.9478 121.587 22.4757H121.744ZM100.811 22.7904C100.811 22.633 100.811 22.633 100.811 22.4757C100.969 22.4757 100.969 22.4757 101.126 22.4757C101.126 22.633 101.126 22.633 101.126 22.7904C100.969 22.7904 100.969 22.7904 100.811 22.7904ZM122.689 22.9478C122.689 22.9478 122.846 23.1052 122.689 22.9478V22.9478ZM116.393 23.1052C116.393 23.1052 116.55 23.2626 116.393 23.1052V23.1052ZM119.541 23.1052C119.698 22.4757 119.698 23.7348 119.541 23.1052V23.1052ZM118.754 23.2626C118.754 23.2626 118.911 23.42 118.754 23.2626V23.2626ZM119.541 23.7348C119.541 23.7348 119.698 23.8922 119.541 23.7348V23.7348ZM114.19 23.8922C114.19 23.8922 114.347 24.0496 114.19 23.8922V23.8922ZM115.764 23.7348C115.764 23.8922 115.606 23.8922 115.449 23.8922C115.449 23.7348 115.606 23.7348 115.764 23.7348ZM113.245 24.207C113.717 23.8922 112.93 24.6791 113.245 24.207V24.207ZM111.829 25.1513C111.671 24.6791 112.301 24.8365 112.144 24.207C112.458 24.3643 112.301 25.3087 111.829 25.1513ZM114.504 24.5217C114.504 24.5217 114.662 24.6791 114.504 24.5217V24.5217ZM116.708 24.8365C116.708 24.8365 116.865 24.9939 116.708 24.8365V24.8365ZM111.671 25.7809C111.357 25.6235 111.671 25.4661 111.671 25.3087C111.986 25.4661 111.671 25.6235 111.671 25.7809ZM111.829 26.0957C111.986 25.7809 112.144 25.6235 112.301 25.3087C112.773 25.4661 112.458 26.253 111.829 26.0957ZM113.717 25.6235C113.717 25.4661 113.717 25.4661 113.717 25.3087C113.875 25.3087 113.875 25.3087 114.032 25.3087C114.032 25.4661 114.032 25.4661 114.032 25.6235C113.875 25.6235 113.875 25.6235 113.717 25.6235ZM113.56 25.9383C114.347 26.253 114.032 25.4661 114.662 25.4661C114.19 25.9383 114.977 26.7252 114.19 26.7252C114.19 26.253 114.504 26.4104 114.19 26.0957C113.717 26.0957 114.347 27.04 113.717 26.7252C113.717 26.5678 113.875 26.5678 113.875 26.4104C113.717 26.253 113.56 26.253 113.56 25.9383ZM120.013 26.0957C119.856 26.0957 120.013 25.6235 119.698 25.6235C119.698 25.4661 119.698 25.4661 119.856 25.4661C120.013 25.4661 120.013 25.4661 120.17 25.4661C120.17 25.7809 120.013 25.9383 120.013 26.0957ZM111.199 26.253C111.357 25.6235 111.357 26.8826 111.199 26.253V26.253ZM111.042 26.7252C110.884 26.7252 110.884 26.5678 111.042 26.7252C111.514 26.7252 110.884 27.3548 111.042 26.7252ZM113.403 26.7252C113.403 26.7252 113.56 26.8826 113.403 26.7252V26.7252ZM110.727 27.04C110.884 26.4104 110.57 27.9843 110.727 27.04V27.04ZM116.865 27.04C116.865 27.04 117.023 27.1974 116.865 27.04V27.04ZM115.291 27.3548C115.291 27.3548 115.449 27.5122 115.291 27.3548V27.3548ZM118.754 27.3548C118.754 27.3548 118.911 27.5122 118.754 27.3548V27.3548ZM113.875 27.3548C113.875 27.5122 113.717 27.5122 113.56 27.5122C113.56 27.3548 113.717 27.3548 113.875 27.3548ZM120.328 27.6696C120.328 27.6696 120.485 27.827 120.328 27.6696V27.6696ZM112.458 29.4009C112.458 28.6139 113.403 28.4565 112.93 27.6696C113.088 27.6696 113.245 27.6696 113.403 27.6696C113.088 28.4565 113.245 29.0861 112.458 29.4009ZM117.023 27.827C117.023 27.827 117.18 27.9843 117.023 27.827V27.827ZM118.597 27.827C118.597 27.827 118.754 27.9843 118.597 27.827V27.827ZM118.597 28.1417C118.597 28.4565 118.439 28.1417 118.282 28.1417C118.282 27.9843 118.597 27.9843 118.597 28.1417ZM109.783 28.9287C109.783 28.7713 109.783 28.7713 109.783 28.6139C109.94 28.6139 109.94 28.6139 110.097 28.6139C110.097 28.7713 110.097 28.7713 110.097 28.9287C109.94 28.9287 109.94 28.9287 109.783 28.9287ZM116.55 28.7713C116.708 28.2991 116.865 29.4009 116.55 28.7713V28.7713ZM110.727 28.9287C110.727 29.0861 110.57 29.0861 110.412 29.0861C110.412 28.9287 110.57 28.9287 110.727 28.9287ZM114.347 29.0861C114.662 28.4565 114.504 29.5583 114.347 29.0861V29.0861ZM116.236 29.5583C116.393 29.4009 116.236 28.9287 116.708 29.0861C116.708 29.4009 116.55 29.5583 116.236 29.5583ZM109.625 29.873C109.468 29.873 109.468 30.0304 109.153 30.0304C109.153 29.7157 109.625 29.7157 109.468 29.2435C109.625 29.2435 109.625 29.5583 109.625 29.873C109.783 30.1878 109.783 29.873 109.625 29.873ZM101.284 29.5583C101.756 29.2435 100.969 30.0304 101.284 29.5583V29.5583ZM111.042 29.7157C111.042 29.7157 111.199 29.873 111.042 29.7157V29.7157ZM114.032 29.7157C114.032 29.7157 114.19 29.873 114.032 29.7157V29.7157ZM109.94 30.0304C109.94 30.0304 110.097 30.1878 109.94 30.0304V30.0304ZM111.199 30.3452C111.199 30.1878 111.199 30.0304 111.199 29.873C111.671 29.7157 111.671 30.66 111.199 30.3452ZM111.986 30.9748C111.829 30.5026 111.829 30.3452 111.986 29.873C112.616 29.7157 111.514 30.9748 112.616 30.66C112.458 30.8174 112.301 30.9748 111.986 30.9748ZM109.783 30.3452C109.783 30.3452 109.94 30.5026 109.783 30.3452V30.3452ZM113.56 30.3452C113.717 29.7157 113.717 30.9748 113.56 30.3452V30.3452ZM109.31 30.9748C108.996 30.9748 108.996 30.66 108.996 30.3452C109.468 30.1878 109.31 30.66 109.31 30.9748ZM101.441 30.66C101.441 30.66 101.598 30.8174 101.441 30.66V30.66ZM117.023 30.66C117.023 30.66 117.18 30.8174 117.023 30.66V30.66ZM109.468 30.8174C109.625 30.3452 109.783 31.447 109.468 30.8174V30.8174ZM113.403 30.8174C113.56 30.1878 113.245 31.7617 113.403 30.8174V30.8174ZM111.671 31.9191C111.042 31.7617 111.357 31.447 111.514 30.8174C112.301 30.8174 111.514 31.6043 111.671 31.9191ZM117.18 30.9748C117.18 30.9748 117.337 31.1322 117.18 30.9748V30.9748ZM108.838 31.1322C108.681 31.1322 108.681 30.9748 108.838 31.1322C108.996 31.1322 108.996 31.447 108.838 31.1322ZM109.468 31.447C109.468 31.447 109.625 31.6043 109.468 31.447V31.447ZM110.727 31.447C110.57 31.447 110.57 31.2896 110.727 31.447C110.884 31.447 110.884 31.7617 110.727 31.447ZM108.681 31.6043C108.681 31.6043 108.838 31.7617 108.681 31.6043V31.6043ZM113.088 31.6043C113.088 31.6043 113.245 31.7617 113.088 31.6043V31.6043ZM115.134 32.2339C114.819 32.2339 114.819 31.7617 114.977 31.6043C115.134 31.6043 115.134 32.0765 115.134 32.2339ZM108.838 31.9191C108.838 31.9191 108.996 32.0765 108.838 31.9191V31.9191ZM110.884 31.7617C111.514 31.7617 110.727 32.7061 110.884 31.7617V31.7617ZM107.894 33.1783C107.579 32.7061 108.051 32.5487 108.209 31.9191C108.524 32.2339 108.051 32.8635 107.894 33.1783C107.264 33.1783 107.894 33.8078 107.894 33.1783ZM108.524 32.0765C108.524 32.0765 108.681 32.2339 108.524 32.0765V32.0765ZM117.652 32.2339C117.81 31.6043 117.81 32.8635 117.652 32.2339V32.2339ZM108.681 32.5487C108.838 32.2339 108.996 32.2339 109.153 32.3913C109.153 32.5487 108.838 32.5487 108.681 32.5487C108.681 32.7061 108.838 32.8635 108.681 33.0209C108.524 33.0209 108.524 32.5487 108.681 32.5487ZM110.255 32.3913C110.255 32.3913 110.412 32.5487 110.255 32.3913V32.3913ZM110.884 32.7061C110.412 32.0765 111.829 32.3913 111.199 32.8635C111.042 32.8635 111.042 32.7061 110.884 32.7061C110.727 33.1783 110.412 33.3357 110.57 33.9652C110.097 33.8078 109.94 32.3913 110.884 32.7061ZM114.347 32.5487C114.347 32.5487 114.504 32.7061 114.347 32.5487V32.5487ZM117.652 32.5487C117.652 32.7061 117.495 32.7061 117.337 32.7061C117.337 32.5487 117.495 32.5487 117.652 32.5487ZM114.347 33.0209C114.662 33.0209 114.504 32.5487 114.819 32.7061C114.662 32.8635 114.819 33.3357 114.347 33.1783C114.347 33.3357 114.032 33.3357 114.347 33.1783V33.0209C114.19 32.8635 114.19 33.0209 114.347 33.0209ZM108.524 33.3357C108.524 33.3357 108.681 33.493 108.524 33.3357V33.3357ZM112.301 33.3357C112.301 33.1783 112.458 33.1783 112.301 33.3357C112.301 33.6504 112.144 33.6504 112.144 33.9652H111.986C111.986 34.5948 111.357 33.9652 111.986 33.9652C111.986 33.6504 111.986 33.493 112.144 33.3357H112.301ZM102.07 34.28C101.598 34.28 101.598 33.9652 101.598 33.493C102.07 33.493 102.07 33.8078 102.07 34.28ZM114.032 33.6504C114.032 33.6504 114.19 33.8078 114.032 33.6504V33.6504ZM106.95 34.5948C106.95 34.1226 107.264 33.9652 107.422 33.6504C107.894 34.1226 106.95 34.4374 107.422 34.9096C107.264 34.9096 107.107 34.5948 106.95 34.5948ZM108.051 33.8078C108.209 33.1783 108.209 34.4374 108.051 33.8078V33.8078ZM108.366 33.8078C108.366 33.8078 108.524 33.9652 108.366 33.8078V33.8078ZM108.996 34.9096C108.996 34.4374 108.996 34.1226 109.468 34.1226C109.468 34.4374 109.468 34.5948 109.31 34.7522C109.94 34.9096 109.625 34.28 109.94 33.9652C110.412 34.28 110.097 34.5948 110.097 35.2243C109.625 35.067 109.783 35.3817 109.153 35.5391C108.996 35.2243 109.625 34.9096 108.996 34.9096C108.681 35.067 108.996 35.067 108.996 34.9096ZM113.717 34.1226C113.875 33.6504 114.032 34.7522 113.717 34.1226V34.1226ZM110.412 34.28C110.412 34.28 110.57 34.4374 110.412 34.28V34.28ZM114.662 34.28C114.662 34.28 114.819 34.4374 114.662 34.28V34.28ZM113.56 35.2243C112.93 35.067 113.403 34.4374 113.875 34.4374C114.032 34.9096 113.56 34.9096 113.56 35.2243ZM111.042 35.5391C111.199 35.2243 111.357 34.9096 111.357 34.5948C111.671 34.7522 111.514 35.6965 111.042 35.5391ZM106.792 35.067C106.477 35.8539 107.107 34.28 106.792 35.067V35.067ZM107.422 35.3817C107.422 35.3817 107.579 35.5391 107.422 35.3817V35.3817ZM108.838 35.8539C108.681 35.8539 108.524 35.6965 108.524 35.3817C108.681 35.3817 108.838 35.5391 108.838 35.8539C108.996 35.8539 109.153 35.8539 109.31 35.8539C109.468 36.3261 108.996 36.3261 108.838 36.4835C108.681 36.9557 108.996 37.9 108.366 38.0574C108.524 38.0574 108.524 37.2704 108.366 37.7426C108.051 37.5852 108.681 37.113 107.737 37.2704C107.894 36.7983 108.209 36.9557 107.894 36.3261C108.366 36.6409 108.838 36.7983 108.838 35.8539ZM111.357 38.0574C111.514 38.0574 111.514 37.9 111.514 37.7426C111.829 38.0574 111.829 37.7426 112.144 37.5852C111.986 36.3261 112.93 36.1687 112.773 35.3817C113.245 35.5391 113.245 35.3817 113.56 35.5391C112.93 36.1687 113.088 36.6409 112.93 37.5852C112.301 37.7426 111.986 38.0574 112.301 38.8443C111.199 39.6313 110.727 41.0478 110.412 42.6217C110.255 42.6217 110.097 42.7791 109.94 42.6217C109.625 42.7791 110.255 43.0939 109.783 43.4087C109.94 43.4087 109.94 43.7235 109.783 43.4087C109.625 43.8809 109.31 44.1957 109.153 44.5104C108.524 44.5104 109.153 43.8809 108.838 43.8809C108.838 43.5661 109.31 43.7235 109.468 43.5661C109.153 43.2513 109.625 42.9365 109.31 42.4643C109.94 42.307 109.94 42.1496 109.783 41.52C109.94 41.52 110.255 41.52 110.412 41.52C110.255 40.733 110.727 40.5757 111.042 40.2609C110.884 39.9461 110.727 39.4739 110.097 39.6313C110.255 39.3165 110.57 39.3165 111.042 39.4739C111.357 39.3165 110.727 38.687 111.514 38.5296C111.514 38.3722 111.357 38.2148 111.357 38.0574C110.884 38.2148 110.884 37.7426 110.884 37.2704C111.199 37.4278 111.199 37.9 111.357 38.0574ZM107.264 35.6965C107.422 35.067 107.422 36.3261 107.264 35.6965V35.6965ZM112.301 35.6965C112.301 35.6965 112.458 35.8539 112.301 35.6965V35.6965ZM102.385 36.4835C101.756 36.7983 102.228 36.0113 101.913 36.0113C102.07 35.5391 102.543 36.1687 102.385 36.4835ZM106.163 36.4835C106.163 36.4835 106.32 36.6409 106.163 36.4835V36.4835ZM106.635 36.4835C106.635 36.4835 106.792 36.6409 106.635 36.4835V36.4835ZM110.255 36.7983C110.412 36.7983 110.412 36.7983 110.412 36.6409C110.57 36.6409 110.57 36.6409 110.727 36.6409C110.727 36.7983 110.727 36.7983 110.727 36.9557C110.57 36.9557 110.57 36.9557 110.57 37.113C110.412 37.113 110.412 37.113 110.255 37.113C110.255 36.9557 110.255 36.9557 110.255 36.7983ZM113.56 37.113C113.56 37.113 113.717 37.2704 113.56 37.113V37.113ZM110.097 37.9C109.625 37.9 110.097 37.4278 110.097 37.2704C110.412 37.2704 110.097 37.7426 110.097 37.9C110.255 38.2148 110.255 37.9 110.097 37.9ZM111.357 37.5852C111.357 37.5852 111.514 37.7426 111.357 37.5852V37.5852ZM106.32 37.7426C106.32 38.0574 106.163 37.7426 106.005 37.7426C106.005 37.5852 106.32 37.5852 106.32 37.7426ZM107.107 37.7426C107.107 37.7426 107.264 37.9 107.107 37.7426V37.7426ZM107.894 38.0574C107.737 38.0574 107.737 37.9 107.894 38.0574C108.681 37.9 107.737 38.8443 107.894 38.0574ZM110.727 38.2148C110.255 38.2148 110.884 37.5852 110.727 38.2148C110.884 38.2148 110.884 38.5296 110.727 38.2148ZM105.376 38.2148C105.376 38.2148 105.533 38.3722 105.376 38.2148V38.2148ZM105.848 38.5296C105.848 38.5296 106.005 38.687 105.848 38.5296V38.5296ZM107.422 38.5296C106.792 38.687 107.422 38.0574 107.422 38.5296C107.579 38.5296 107.737 38.3722 107.737 38.5296C107.737 38.687 107.737 38.687 107.737 38.8443C107.579 38.8443 107.422 38.8443 107.264 38.8443C107.264 38.687 107.422 38.687 107.422 38.5296ZM104.904 38.687C104.904 38.687 105.061 38.8443 104.904 38.687V38.687ZM106.95 39.0017C106.95 39.0017 107.107 39.1591 106.95 39.0017V39.0017ZM109.31 39.9461C108.681 39.9461 109.31 38.8443 109.625 38.8443C110.097 39.1591 109.31 39.6313 109.31 39.9461ZM114.032 39.0017C114.032 39.0017 114.19 39.1591 114.032 39.0017V39.0017ZM106.95 39.9461C106.163 40.1035 106.477 39.6313 106.477 39.0017C107.107 38.8443 106.95 39.4739 106.95 39.9461ZM108.209 39.0017C108.209 39.1591 108.051 39.1591 107.894 39.1591C107.894 39.0017 108.051 39.0017 108.209 39.0017ZM104.746 39.6313C104.746 39.4739 104.746 39.4739 104.746 39.3165C104.904 39.3165 104.904 39.3165 105.061 39.3165C105.061 39.4739 105.061 39.4739 105.061 39.6313C104.904 39.6313 104.904 39.6313 104.746 39.6313ZM102.7 39.7887C102.7 40.2609 102.07 39.7887 102.228 39.4739C102.543 39.3165 102.385 39.7887 102.7 39.7887ZM106.477 41.0478C106.792 40.5757 107.107 40.1035 107.264 39.4739C107.737 39.3165 108.524 39.6313 107.579 39.6313C107.107 40.8904 106.635 41.3626 106.32 42.7791C106.005 42.4643 105.061 42.7791 105.218 41.9922C105.376 41.9922 105.533 41.9922 105.533 42.307C105.848 42.1496 105.848 41.52 106.477 41.6774C106.477 41.52 106.477 41.2052 106.477 41.0478C106.005 41.0478 105.848 41.0478 105.848 41.52C105.376 41.6774 105.533 41.2052 105.218 41.2052C105.376 40.8904 106.163 41.0478 106.32 40.733C106.477 40.733 106.477 40.8904 106.477 41.0478ZM104.746 40.1035C104.904 40.1035 104.904 40.1035 104.904 39.9461C105.061 39.9461 105.061 39.9461 105.218 39.9461C105.218 40.1035 105.218 40.1035 105.218 40.2609C105.061 40.2609 105.061 40.2609 105.061 40.4183C104.904 40.4183 104.904 40.4183 104.746 40.4183C104.746 40.2609 104.746 40.2609 104.746 40.1035ZM106.32 40.5757C106.005 40.5757 105.848 40.4183 105.848 40.1035C106.005 40.2609 106.477 40.1035 106.32 40.5757ZM108.681 40.2609C108.838 39.6313 108.838 40.8904 108.681 40.2609V40.2609ZM102.857 40.4183C102.543 40.8904 102.07 39.9461 102.857 40.4183V40.4183ZM104.589 40.733C104.746 40.1035 104.746 41.3626 104.589 40.733V40.733ZM102.385 40.8904C102.7 40.4183 102.385 42.1496 102.385 40.8904V40.8904ZM104.904 41.0478C104.904 41.0478 105.061 41.2052 104.904 41.0478V41.0478ZM108.524 41.0478C108.524 40.8904 108.681 40.8904 108.524 41.0478C108.524 41.2052 108.209 41.2052 108.524 41.0478ZM108.681 41.52C108.838 41.52 108.838 41.52 108.838 41.3626C109.153 41.52 109.153 41.6774 108.996 41.8348C108.838 41.8348 108.838 41.8348 108.681 41.8348C108.681 41.6774 108.681 41.6774 108.681 41.52ZM102.385 41.6774C102.385 41.6774 102.543 41.8348 102.385 41.6774V41.6774ZM109.153 42.6217C108.838 42.7791 108.838 42.4643 108.838 42.1496C108.996 42.1496 109.153 42.307 109.153 42.6217ZM107.894 42.4643C108.051 41.8348 108.051 43.0939 107.894 42.4643V42.4643ZM105.061 42.7791C105.061 42.7791 105.218 42.9365 105.061 42.7791V42.7791ZM105.69 42.9365C105.848 42.307 105.848 43.5661 105.69 42.9365V42.9365ZM104.904 43.0939C104.904 43.0939 105.061 43.2513 104.904 43.0939V43.0939ZM110.255 43.2513C110.255 43.2513 110.412 43.4087 110.255 43.2513V43.2513ZM104.746 43.7235C104.746 43.7235 104.904 43.8809 104.746 43.7235V43.7235ZM108.051 43.7235C108.524 43.4087 107.737 44.1957 108.051 43.7235V43.7235ZM107.107 44.0383C107.107 44.0383 107.264 44.1957 107.107 44.0383V44.0383ZM104.746 44.1957C104.746 44.1957 104.904 44.353 104.746 44.1957V44.1957ZM105.061 44.353C105.061 43.7235 105.69 44.353 105.061 44.353C105.218 44.9826 104.589 44.353 105.061 44.353ZM106.95 44.5104C106.95 44.5104 107.107 44.6678 106.95 44.5104V44.5104ZM107.579 44.6678C107.579 44.6678 107.737 44.8252 107.579 44.6678V44.6678ZM108.838 45.4548C108.681 45.4548 108.681 45.4548 108.524 45.4548C108.524 45.2974 108.524 45.14 108.681 44.9826C108.524 44.9826 108.209 44.9826 108.209 45.14C107.737 44.9826 108.366 44.8252 108.209 44.5104C108.838 44.5104 109.153 44.8252 109.153 45.2974C108.996 45.2974 108.838 45.2974 108.838 45.4548C108.838 46.0843 109.468 45.4548 108.838 45.4548ZM104.746 44.9826C105.061 44.353 104.904 45.4548 104.746 44.9826V44.9826ZM106.635 45.14C106.792 44.6678 106.95 45.14 107.422 44.9826C107.264 45.14 106.792 45.2974 106.635 45.14ZM107.579 45.14C107.579 45.14 107.737 45.2974 107.579 45.14V45.14ZM104.904 45.2974C104.904 45.4548 104.746 45.4548 104.589 45.4548C104.589 45.2974 104.746 45.2974 104.904 45.2974ZM107.422 45.7696C107.422 45.6122 107.579 45.6122 107.422 45.7696C107.422 46.2417 106.792 45.6122 107.422 45.7696ZM107.579 47.3435C107.894 46.3991 107.737 46.2417 108.209 45.6122C108.524 45.6122 108.366 46.0843 108.681 45.927C107.894 47.3435 107.737 49.2322 106.635 50.3339C106.635 49.2322 107.737 48.2878 107.107 47.0287C107.264 47.0287 107.422 47.3435 107.579 47.3435ZM106.95 46.2417C107.107 45.7696 107.264 46.8713 106.95 46.2417V46.2417ZM107.264 46.7139C107.264 46.7139 107.422 46.8713 107.264 46.7139V46.7139ZM106.005 46.8713C106.005 46.8713 106.163 47.0287 106.005 46.8713V46.8713ZM106.792 46.8713C107.264 46.5565 106.635 48.2878 106.792 46.8713V46.8713ZM106.477 47.973C106.95 47.6583 106.163 48.4452 106.477 47.973V47.973ZM105.848 50.8061C105.848 50.8061 106.005 50.9635 105.848 50.8061V50.8061ZM106.005 51.593C106.163 51.1209 106.32 50.6487 106.792 50.6487C106.32 50.8061 106.792 51.7504 106.005 51.593ZM107.894 52.8522C107.894 52.8522 108.051 53.0096 107.894 52.8522V52.8522ZM126.624 4.69044C126.624 5.00522 126.781 5.16261 126.938 5.16261C126.938 4.84783 127.096 4.69044 127.096 4.53304C126.781 4.53304 126.781 4.69044 126.624 4.69044ZM123.476 5.00522C123.633 5.00522 123.79 5.00522 123.79 4.84783C123.633 4.84783 123.476 4.84783 123.476 5.00522ZM123.318 5.32C123.318 5.32 123.476 5.47739 123.318 5.32V5.32ZM127.725 5.32C127.725 5.32 127.883 5.47739 127.725 5.32V5.32ZM123.79 5.47739C123.633 5.47739 123.633 5.32 123.79 5.47739V5.47739ZM127.253 5.63478C128.04 5.79218 127.096 4.84783 127.253 5.63478V5.63478ZM123.318 5.63478C123.161 5.63478 123.161 5.47739 123.318 5.63478V5.63478ZM123.318 5.63478C123.476 5.63478 123.476 5.94956 123.318 5.63478V5.63478ZM127.253 5.63478C127.253 5.79218 126.938 5.79218 127.253 5.63478V5.63478ZM130.873 5.63478C130.873 5.94956 130.873 6.26435 131.03 6.26435C130.873 5.94956 131.503 5.63478 130.873 5.63478ZM123.004 6.26435C123.161 6.26435 123.633 6.73652 123.633 6.26435C123.318 6.42174 123.161 5.79218 123.004 6.26435ZM130.086 6.26435C130.244 6.42174 130.558 6.57913 130.558 6.26435C130.401 6.10696 130.086 5.94956 130.086 6.26435ZM124.577 6.26435C124.105 6.10696 123.633 6.57913 124.105 6.73652C124.105 6.42174 124.892 6.89391 124.577 6.26435ZM130.086 6.26435C129.457 6.26435 130.086 6.89391 130.086 6.26435V6.26435ZM123.004 6.89391C123.004 6.89391 123.161 7.0513 123.004 6.89391V6.89391ZM124.577 6.89391C124.263 7.36609 125.05 6.57913 124.577 6.89391V6.89391ZM122.846 7.2087C123.004 7.68087 123.161 6.57913 122.846 7.2087V7.2087ZM132.762 7.83826C131.975 8.78261 130.873 9.41218 130.244 10.5139C131.503 10.1991 132.604 8.78261 132.762 7.83826ZM121.43 8.15304C121.272 8.15304 121.272 7.99565 121.43 8.15304V8.15304ZM128.197 12.8748H128.355C128.355 12.7174 128.197 12.7174 128.197 12.8748ZM128.197 14.6061C128.355 14.6061 128.355 14.9209 128.197 14.6061V14.6061ZM121.744 24.207C121.902 24.207 121.902 24.207 121.902 24.0496C121.744 24.0496 121.744 24.0496 121.744 24.207ZM121.744 24.207C121.587 24.207 121.587 24.3643 121.744 24.3643V24.207ZM102.385 24.6791C102.543 24.6791 102.543 24.9939 102.385 24.6791V24.6791ZM121.43 25.7809C121.43 25.7809 121.587 25.9383 121.43 25.7809V25.7809ZM102.7 28.2991C103.172 28.2991 102.543 27.6696 102.7 28.2991V28.2991ZM118.597 30.1878C118.911 30.1878 118.754 30.66 119.069 30.66C119.226 30.3452 118.754 29.7157 118.597 30.1878ZM117.023 33.3357C116.393 33.6504 117.023 32.7061 116.55 32.7061C116.236 33.0209 116.55 33.3357 116.55 33.6504C116.236 33.9652 116.393 33.6504 115.921 33.6504C116.236 34.28 115.606 34.1226 115.449 34.5948C115.764 35.067 115.606 35.2243 115.764 35.5391C116.236 34.5948 116.55 34.4374 117.337 33.9652C117.023 33.8078 117.023 33.6504 117.18 33.493C117.023 33.493 117.023 33.493 117.023 33.3357ZM116.55 34.7522C116.708 35.2243 116.865 34.1226 116.55 34.7522V34.7522ZM116.393 35.2243C116.393 35.3817 116.236 35.3817 116.236 35.5391C116.55 35.5391 116.708 35.5391 116.708 35.2243C116.55 35.2243 116.55 35.2243 116.393 35.2243ZM114.662 37.4278C114.662 37.2704 114.819 37.2704 114.662 37.4278V37.4278ZM114.662 37.4278C114.504 37.4278 114.504 37.4278 114.347 37.4278C114.347 37.7426 114.504 37.7426 114.504 37.9C114.662 37.9 114.662 37.5852 114.662 37.4278ZM113.717 39.3165C113.56 39.3165 113.56 39.1591 113.717 39.3165V39.3165ZM113.717 39.3165C113.717 39.9461 114.347 39.3165 113.717 39.3165V39.3165ZM114.347 39.4739C114.347 39.6313 114.032 39.6313 114.347 39.4739V39.4739ZM112.93 39.9461C113.56 39.9461 112.93 39.3165 112.93 39.9461V39.9461ZM113.403 40.2609C113.717 39.7887 113.717 40.733 114.19 40.4183C114.19 40.2609 114.19 40.2609 114.19 40.1035C114.19 39.9461 114.19 39.9461 114.032 39.9461C114.032 40.1035 114.032 40.1035 113.875 40.1035C114.032 39.6313 113.56 39.7887 113.403 39.6313C113.56 39.9461 112.93 40.1035 113.403 40.2609ZM112.93 39.9461C112.93 40.1035 112.616 40.1035 112.93 39.9461V39.9461ZM112.93 40.2609C112.773 40.733 112.616 41.9922 112.144 41.2052C111.671 42.1496 111.986 43.0939 111.671 43.7235C112.616 43.5661 112.144 41.9922 113.245 41.9922C112.458 41.3626 113.56 40.733 112.93 40.2609ZM113.403 40.2609C113.56 40.2609 113.56 40.5757 113.403 40.2609V40.2609ZM113.403 41.0478C113.403 41.2052 113.403 41.2052 113.403 41.3626C113.56 41.3626 113.56 41.3626 113.717 41.3626C113.717 41.2052 113.717 41.2052 113.717 41.0478C113.56 41.0478 113.56 41.0478 113.403 41.0478ZM113.088 42.307C113.088 42.1496 113.245 42.1496 113.088 42.307V42.307ZM113.088 42.307C112.773 42.307 112.301 43.0939 112.773 43.4087C112.93 43.0939 113.088 42.7791 113.088 42.307ZM112.301 43.7235C112.301 43.7235 112.458 43.8809 112.301 43.7235V43.7235ZM112.144 44.1957C112.144 44.5104 111.671 44.353 111.829 44.8252C112.144 44.9826 112.458 44.1957 112.144 44.1957ZM111.042 45.4548C111.199 45.2974 111.514 45.2974 111.514 44.8252C111.357 44.8252 111.199 44.8252 111.042 44.8252C111.042 44.9826 111.042 45.2974 111.042 45.4548ZM111.042 45.4548C110.412 45.2974 111.042 45.927 111.042 45.4548V45.4548ZM111.514 45.927C112.144 45.927 111.357 44.9826 111.514 45.927V45.927ZM110.884 46.2417C111.042 46.0843 111.199 45.7696 110.884 45.7696C110.727 45.927 110.727 46.0843 110.727 46.2417H110.884ZM111.514 45.927C111.357 45.927 111.357 46.0843 111.357 46.2417C111.514 46.2417 111.514 46.0843 111.514 45.927ZM110.727 46.2417C110.412 46.2417 110.412 46.0843 110.255 46.0843C109.94 46.2417 110.57 47.1861 110.727 46.7139C110.57 46.7139 110.57 46.5565 110.727 46.7139C110.884 46.7139 110.884 46.5565 111.042 46.5565C111.042 46.7139 111.042 47.0287 111.199 47.0287C111.199 46.7139 111.514 46.7139 111.357 46.2417C111.199 46.2417 111.042 46.2417 110.884 46.2417C110.884 46.3991 110.727 46.3991 110.727 46.2417ZM110.255 47.3435C110.412 47.3435 110.57 47.3435 110.57 47.1861C110.412 47.1861 110.255 47.1861 110.255 47.3435ZM110.884 47.3435C110.884 47.3435 111.042 47.5009 110.884 47.3435V47.3435ZM107.579 47.3435V47.5009C107.737 47.5009 107.737 47.3435 107.579 47.3435ZM108.681 49.8617C108.681 50.1765 109.153 50.0191 109.153 50.3339C108.366 50.8061 108.051 51.2783 108.366 52.0652C108.838 52.0652 108.681 51.4357 109.31 51.7504C109.783 50.4913 110.412 49.2322 110.727 47.8157C110.412 47.8157 110.412 47.6583 110.097 47.6583C110.097 47.973 109.94 48.1304 109.783 48.1304C109.783 48.2878 109.625 48.2878 109.625 48.4452C109.783 48.4452 110.097 48.4452 110.097 48.6026C109.468 48.6026 110.097 49.0748 109.783 49.0748C109.625 48.9174 108.209 49.3896 108.681 49.8617C108.681 49.7043 108.838 49.7043 108.838 49.8617H108.681ZM109.783 48.1304C109.783 47.6583 109.153 48.2878 109.783 48.1304V48.1304ZM109.625 48.4452C108.996 48.2878 109.625 48.9174 109.625 48.4452V48.4452Z" fill="white"/>
</svg>
